# xmcd
#
# Track frame offsets:
#	150
#	30872
#	58217
#	87649
#	113901
#	139451
#	154009
#	184992
#	225060
#	248997
#	285595
#
# Disc length: 4103 seconds
#
# Revision: 2
# Processed by: cddbd v1.5.1PL0 Copyright (c) Steve Scherf et al.
# Submitted via: audiograbber 1.83.01
#
DISCID=9310050b
DTITLE=Charlie A'Court - LIVE 
DYEAR=2004
DGENRE=Blues
TTITLE0=Walking Blues
TTITLE1=Big Dark Canyon
TTITLE2=Color Me Gone
TTITLE3=I'd Do This For You
TTITLE4=Bridges To Burn
TTITLE5=Perpetual Blues Machine
TTITLE6=Carolina
TTITLE7=Alone
TTITLE8=Lady Woman
TTITLE9=I'm Coming Home
TTITLE10=You've Got A Friend In Me
EXTD=Recorded at the Guenter-Eich-Haus in Baden-Baden - Germany! on December 6,
EXTD=2003 (Label: SWR and Herman's)
EXTT0=
EXTT1=
EXTT2=
EXTT3=
EXTT4=
EXTT5=
EXTT6=
EXTT7=
EXTT8=
EXTT9=
EXTT10=
PLAYORDER=
